<svg width="60" height="12" viewBox="0 0 60 12" fill="none" xmlns="http://www.w3.org/2000/svg">
<path d="M5.72461 4.9043H4.72852C4.58203 4.24219 4.06641 3.69727 3.16992 3.69727C2.11523 3.69727 1.40039 4.57031 1.40039 5.95312C1.40039 7.37109 2.12695 8.20898 3.18164 8.20898C4.01367 8.20898 4.55859 7.76953 4.73438 7.03711H5.73633C5.57812 8.25 4.55859 9.10547 3.17578 9.10547C1.48828 9.10547 0.363281 7.91602 0.363281 5.95312C0.363281 4.03125 1.48242 2.80078 3.16406 2.80078C4.6875 2.80078 5.5957 3.80859 5.72461 4.9043ZM9.19922 9.10547C7.51172 9.10547 6.375 7.89258 6.375 5.95312C6.375 4.00781 7.51172 2.80078 9.19922 2.80078C10.8809 2.80078 12.0176 4.00781 12.0176 5.95312C12.0176 7.89258 10.8809 9.10547 9.19922 9.10547ZM9.19922 8.20898C10.2773 8.20898 10.9805 7.38867 10.9805 5.95312C10.9805 4.51758 10.2773 3.69727 9.19922 3.69727C8.12109 3.69727 7.41211 4.51758 7.41211 5.95312C7.41211 7.38867 8.12109 8.20898 9.19922 8.20898ZM13.0488 9V2.90625H14.0098V3.87891H14.0332C14.3203 3.23438 14.9414 2.80078 15.7617 2.80078C16.5938 2.80078 17.209 3.22266 17.4727 3.96094H17.4961C17.8359 3.23438 18.5508 2.80078 19.4062 2.80078C20.6133 2.80078 21.3926 3.58594 21.3926 4.79297V9H20.373V5.02734C20.373 4.19531 19.9102 3.70312 19.1074 3.70312C18.2988 3.70312 17.7305 4.30078 17.7305 5.12695V9H16.7109V4.91602C16.7109 4.18359 16.2188 3.70312 15.4629 3.70312C14.6543 3.70312 14.0684 4.33594 14.0684 5.17969V9H13.0488ZM23.0215 9V3.74414H22.1719V2.90625H23.0215V2.22656C23.0215 1.05469 23.5664 0.498047 24.6914 0.498047C24.9199 0.498047 25.166 0.521484 25.3125 0.544922V1.37109C25.1895 1.35352 25.0195 1.33594 24.8496 1.33594C24.2988 1.33594 24.0352 1.62891 24.0352 2.23242V2.90625H25.2832V3.74414H24.041V9H23.0215ZM26.8418 11.2793C26.7188 11.2793 26.5137 11.2676 26.4023 11.2441V10.3887C26.5137 10.4121 26.6719 10.418 26.8008 10.418C27.3691 10.418 27.6855 10.1426 27.9199 9.43359L28.0605 9.00586L25.8105 2.90625H26.9004L28.5879 7.98047H28.6055L30.293 2.90625H31.3652L28.9688 9.42773C28.4473 10.8516 27.9434 11.2793 26.8418 11.2793ZM32.2266 9V0.544922H33.2461V3.87891H33.2695C33.6094 3.19922 34.2773 2.80078 35.2031 2.80078C36.5391 2.80078 37.3477 3.70312 37.3477 5.0625V9H36.3281V5.25C36.3281 4.2832 35.8418 3.70312 34.8867 3.70312C33.873 3.70312 33.2461 4.39453 33.2461 5.44922V9H32.2266ZM41.168 9.10547C39.4805 9.10547 38.3438 7.89258 38.3438 5.95312C38.3438 4.00781 39.4805 2.80078 41.168 2.80078C42.8496 2.80078 43.9863 4.00781 43.9863 5.95312C43.9863 7.89258 42.8496 9.10547 41.168 9.10547ZM41.168 8.20898C42.2461 8.20898 42.9492 7.38867 42.9492 5.95312C42.9492 4.51758 42.2461 3.69727 41.168 3.69727C40.0898 3.69727 39.3809 4.51758 39.3809 5.95312C39.3809 7.38867 40.0898 8.20898 41.168 8.20898ZM45.0176 9V2.90625H45.9785V3.87891H46.002C46.2891 3.23438 46.9102 2.80078 47.7305 2.80078C48.5625 2.80078 49.1777 3.22266 49.4414 3.96094H49.4648C49.8047 3.23438 50.5195 2.80078 51.375 2.80078C52.582 2.80078 53.3613 3.58594 53.3613 4.79297V9H52.3418V5.02734C52.3418 4.19531 51.8789 3.70312 51.0762 3.70312C50.2676 3.70312 49.6992 4.30078 49.6992 5.12695V9H48.6797V4.91602C48.6797 4.18359 48.1875 3.70312 47.4316 3.70312C46.623 3.70312 46.0371 4.33594 46.0371 5.17969V9H45.0176ZM54.4746 9V8.27344L57.8496 3.76172V3.74414H54.4805V2.90625H59.0039V3.65039L55.6523 8.14453V8.16211H59.0215V9H54.4746Z" fill="black"/>
</svg>
