<svg width="99" height="19" viewBox="0 0 99 19" fill="none" xmlns="http://www.w3.org/2000/svg">
<path d="M9.54102 8.17383H7.88086C7.63672 7.07031 6.77734 6.16211 5.2832 6.16211C3.52539 6.16211 2.33398 7.61719 2.33398 9.92188C2.33398 12.2852 3.54492 13.6816 5.30273 13.6816C6.68945 13.6816 7.59766 12.9492 7.89062 11.7285H9.56055C9.29688 13.75 7.59766 15.1758 5.29297 15.1758C2.48047 15.1758 0.605469 13.1934 0.605469 9.92188C0.605469 6.71875 2.4707 4.66797 5.27344 4.66797C7.8125 4.66797 9.32617 6.34766 9.54102 8.17383ZM15.332 15.1758C12.5195 15.1758 10.625 13.1543 10.625 9.92188C10.625 6.67969 12.5195 4.66797 15.332 4.66797C18.1348 4.66797 20.0293 6.67969 20.0293 9.92188C20.0293 13.1543 18.1348 15.1758 15.332 15.1758ZM15.332 13.6816C17.1289 13.6816 18.3008 12.3145 18.3008 9.92188C18.3008 7.5293 17.1289 6.16211 15.332 6.16211C13.5352 6.16211 12.3535 7.5293 12.3535 9.92188C12.3535 12.3145 13.5352 13.6816 15.332 13.6816ZM21.748 15V4.84375H23.3496V6.46484H23.3887C23.8672 5.39062 24.9023 4.66797 26.2695 4.66797C27.6562 4.66797 28.6816 5.37109 29.1211 6.60156H29.1602C29.7266 5.39062 30.918 4.66797 32.3438 4.66797C34.3555 4.66797 35.6543 5.97656 35.6543 7.98828V15H33.9551V8.37891C33.9551 6.99219 33.1836 6.17188 31.8457 6.17188C30.498 6.17188 29.5508 7.16797 29.5508 8.54492V15H27.8516V8.19336C27.8516 6.97266 27.0312 6.17188 25.7715 6.17188C24.4238 6.17188 23.4473 7.22656 23.4473 8.63281V15H21.748ZM38.3691 15V6.24023H36.9531V4.84375H38.3691V3.71094C38.3691 1.75781 39.2773 0.830078 41.1523 0.830078C41.5332 0.830078 41.9434 0.869141 42.1875 0.908203V2.28516C41.9824 2.25586 41.6992 2.22656 41.416 2.22656C40.498 2.22656 40.0586 2.71484 40.0586 3.7207V4.84375H42.1387V6.24023H40.0684V15H38.3691ZM44.7363 18.7988C44.5312 18.7988 44.1895 18.7793 44.0039 18.7402V17.3145C44.1895 17.3535 44.4531 17.3633 44.668 17.3633C45.6152 17.3633 46.1426 16.9043 46.5332 15.7227L46.7676 15.0098L43.0176 4.84375H44.834L47.6465 13.3008H47.6758L50.4883 4.84375H52.2754L48.2812 15.7129C47.4121 18.0859 46.5723 18.7988 44.7363 18.7988ZM53.7109 15V0.908203H55.4102V6.46484H55.4492C56.0156 5.33203 57.1289 4.66797 58.6719 4.66797C60.8984 4.66797 62.2461 6.17188 62.2461 8.4375V15H60.5469V8.75C60.5469 7.13867 59.7363 6.17188 58.1445 6.17188C56.4551 6.17188 55.4102 7.32422 55.4102 9.08203V15H53.7109ZM68.6133 15.1758C65.8008 15.1758 63.9062 13.1543 63.9062 9.92188C63.9062 6.67969 65.8008 4.66797 68.6133 4.66797C71.416 4.66797 73.3105 6.67969 73.3105 9.92188C73.3105 13.1543 71.416 15.1758 68.6133 15.1758ZM68.6133 13.6816C70.4102 13.6816 71.582 12.3145 71.582 9.92188C71.582 7.5293 70.4102 6.16211 68.6133 6.16211C66.8164 6.16211 65.6348 7.5293 65.6348 9.92188C65.6348 12.3145 66.8164 13.6816 68.6133 13.6816ZM75.0293 15V4.84375H76.6309V6.46484H76.6699C77.1484 5.39062 78.1836 4.66797 79.5508 4.66797C80.9375 4.66797 81.9629 5.37109 82.4023 6.60156H82.4414C83.0078 5.39062 84.1992 4.66797 85.625 4.66797C87.6367 4.66797 88.9355 5.97656 88.9355 7.98828V15H87.2363V8.37891C87.2363 6.99219 86.4648 6.17188 85.127 6.17188C83.7793 6.17188 82.832 7.16797 82.832 8.54492V15H81.1328V8.19336C81.1328 6.97266 80.3125 6.17188 79.0527 6.17188C77.7051 6.17188 76.7285 7.22656 76.7285 8.63281V15H75.0293ZM90.791 15V13.7891L96.416 6.26953V6.24023H90.8008V4.84375H98.3398V6.08398L92.7539 13.5742V13.6035H98.3691V15H90.791Z" fill="white"/>
</svg>
